<?xml version="1.0" encoding="utf-8"?>
<!-- Generator: Adobe Illustrator 27.1.1, SVG Export Plug-In . SVG Version: 6.00 Build 0)  -->
<svg version="1.1" id="Layer_1" xmlns="http://www.w3.org/2000/svg" xmlns:xlink="http://www.w3.org/1999/xlink" x="0px" y="0px"
	 viewBox="0 0 283.4 47.6" style="enable-background:new 0 0 283.4 47.6;" xml:space="preserve">
<style type="text/css">
	.st0{fill:#00428C;}
	.st1{clip-path:url(#SVGID_00000137822391036516164650000004941088156181069956_);}
</style>
<g id="Group_11938" transform="translate(-1118 -220.692)">
	<path id="Path_7301" class="st0" d="M1118,220.7v12h20.4V268h12.4v-35.2h20.4v-12H1118z"/>
	<path id="Path_7302" class="st0" d="M1212.5,220.7v17.5h-25.6v-17.5h-12.4V268h12.4v-17.8h25.6V268h12.4v-47.3H1212.5z"/>
	<g id="Group_11875" transform="translate(1118 220.692)">
		<g>
			<defs>
				<rect id="SVGID_1_" width="283.4" height="47.6"/>
			</defs>
			<clipPath id="SVGID_00000180369154841225727760000008301892966362139267_">
				<use xlink:href="#SVGID_1_"  style="overflow:visible;"/>
			</clipPath>
			<g id="Group_11874" style="clip-path:url(#SVGID_00000180369154841225727760000008301892966362139267_);">
				<path id="Path_7303" class="st0" d="M266.2,0h-19c-10.8-0.3-16.9,6-17.1,17.8v12c0.2,11.8,6.3,18.1,17.1,17.8h19
					c10.8,0.3,16.9-6,17.1-17.8v-12C283.1,6,277.1-0.3,266.2,0 M270.9,29.4c-0.1,3.8-0.4,6.7-4.7,6.6h-18.8
					c-4.3,0.1-4.6-2.7-4.7-6.6V17.9c0.1-3.7,0.5-6.4,4.7-6.3h18.8c4.2-0.1,4.6,2.6,4.7,6.3L270.9,29.4z"/>
				<path id="Path_7304" class="st0" d="M142.7,14.2l11.7,21.3h-13.2c-2.3,0-3.3,0.4-4.7,3c-1,1.8-4.8,9.1-4.8,9.1h44L149,0h-12.6
					l-26.5,47.6h14.5L142.7,14.2z"/>
				<path id="Path_7305" class="st0" d="M213.9,30.5l0,0.8c-0.3,3.3-1.3,4.8-4.6,4.7h-18.8c-4.3,0.1-4.6-2.7-4.7-6.6V17.9
					c0.1-3.7,0.6-6.4,4.7-6.3h18.8c3.3-0.1,4.3,1.5,4.6,4.7l0,0.8l12.5,0l0-1c-0.8-11-7.1-16.4-17.1-16.1h-19
					c-10.8-0.3-16.9,6-17.1,17.8v12c0.3,11.8,6.3,18.1,17.1,17.8h19c10,0.3,16.3-5.1,17.1-16.1l0-1L213.9,30.5z"/>
			</g>
		</g>
	</g>
</g>
</svg>
